<svg width="56" height="11" viewBox="0 0 56 11" fill="none" xmlns="http://www.w3.org/2000/svg">
<rect width="56" height="11" fill="white"/>
<path d="M17.995 8.9105C18.0383 8.9105 18.0752 8.92567 18.1055 8.956L18.3655 9.2355C18.1748 9.43917 17.9668 9.62333 17.7415 9.788C17.5205 9.94833 17.2757 10.087 17.007 10.204C16.7427 10.3167 16.4502 10.4033 16.1295 10.464C15.8132 10.529 15.4643 10.5615 15.083 10.5615C14.446 10.5615 13.861 10.451 13.328 10.23C12.7993 10.0047 12.3443 9.68833 11.963 9.281C11.5817 8.86933 11.2848 8.37317 11.0725 7.7925C10.8645 7.21183 10.7605 6.56617 10.7605 5.8555C10.7605 5.15783 10.8688 4.52083 11.0855 3.9445C11.3022 3.36817 11.6055 2.87417 11.9955 2.4625C12.3855 2.0465 12.8535 1.72583 13.3995 1.5005C13.9455 1.27083 14.5478 1.156 15.2065 1.156C15.8348 1.156 16.3917 1.2535 16.877 1.4485C17.3623 1.6435 17.8043 1.91867 18.203 2.274L18.0015 2.5665C17.9668 2.6185 17.9127 2.6445 17.839 2.6445C17.787 2.6445 17.7025 2.59683 17.5855 2.5015C17.4685 2.40617 17.306 2.30217 17.098 2.1895C16.89 2.0725 16.63 1.96633 16.318 1.871C16.0103 1.77567 15.6398 1.728 15.2065 1.728C14.6518 1.728 14.1427 1.82333 13.679 2.014C13.2197 2.20467 12.8232 2.47767 12.4895 2.833C12.1602 3.18833 11.9023 3.62167 11.716 4.133C11.5297 4.64433 11.4365 5.2185 11.4365 5.8555C11.4365 6.5055 11.5297 7.08617 11.716 7.5975C11.9067 8.10883 12.1667 8.54217 12.496 8.8975C12.8253 9.2485 13.2132 9.51933 13.6595 9.71C14.1102 9.89633 14.5955 9.9895 15.1155 9.9895C15.4448 9.9895 15.7373 9.96783 15.993 9.9245C16.253 9.88117 16.4913 9.81617 16.708 9.7295C16.9247 9.64283 17.1262 9.53667 17.3125 9.411C17.4988 9.28533 17.683 9.138 17.865 8.969C17.8867 8.95167 17.9083 8.93867 17.93 8.93C17.9517 8.917 17.9733 8.9105 17.995 8.9105Z" fill="#FF0000"/>
<path d="M20.5337 1V10.4575H19.9097V1H20.5337Z" fill="#FF0000"/>
<path d="M27.2573 6.5705C27.2573 6.22383 27.2075 5.914 27.1078 5.641C27.0125 5.36367 26.876 5.12967 26.6983 4.939C26.5206 4.74833 26.3083 4.60317 26.0613 4.5035C25.8186 4.3995 25.55 4.3475 25.2553 4.3475C24.9216 4.3475 24.6226 4.3995 24.3583 4.5035C24.094 4.6075 23.8643 4.757 23.6693 4.952C23.4786 5.147 23.3248 5.381 23.2078 5.654C23.0908 5.927 23.0128 6.2325 22.9738 6.5705H27.2573ZM22.9413 6.967V7.0905C22.9413 7.57583 22.9976 8.00267 23.1103 8.371C23.223 8.73933 23.3833 9.04917 23.5913 9.3005C23.7993 9.5475 24.0506 9.73383 24.3453 9.8595C24.64 9.98517 24.9693 10.048 25.3333 10.048C25.6583 10.048 25.94 10.0133 26.1783 9.944C26.4166 9.87033 26.616 9.79017 26.7763 9.7035C26.941 9.6125 27.071 9.53233 27.1663 9.463C27.2616 9.38933 27.331 9.3525 27.3743 9.3525C27.4306 9.3525 27.474 9.37417 27.5043 9.4175L27.6733 9.6255C27.5693 9.7555 27.4306 9.87683 27.2573 9.9895C27.0883 10.1022 26.8976 10.1997 26.6853 10.282C26.4773 10.36 26.252 10.4228 26.0093 10.4705C25.771 10.5182 25.5305 10.542 25.2878 10.542C24.8458 10.542 24.4428 10.4662 24.0788 10.3145C23.7148 10.1585 23.4028 9.93317 23.1428 9.6385C22.8828 9.34383 22.6813 8.98417 22.5383 8.5595C22.3996 8.1305 22.3303 7.64083 22.3303 7.0905C22.3303 6.62683 22.3953 6.2 22.5253 5.81C22.6596 5.41567 22.8503 5.07767 23.0973 4.796C23.3486 4.51 23.6541 4.28683 24.0138 4.1265C24.3778 3.96617 24.7895 3.886 25.2488 3.886C25.6128 3.886 25.9508 3.94883 26.2628 4.0745C26.5748 4.20017 26.8456 4.38433 27.0753 4.627C27.305 4.86533 27.4848 5.16 27.6148 5.511C27.7491 5.862 27.8163 6.265 27.8163 6.72C27.8163 6.81533 27.8033 6.88033 27.7773 6.915C27.7513 6.94967 27.708 6.967 27.6473 6.967H22.9413Z" fill="#FF0000"/>
<path d="M33.1201 7.331C32.5048 7.35267 31.9739 7.4025 31.5276 7.4805C31.0856 7.55417 30.7194 7.656 30.4291 7.786C30.1431 7.916 29.9308 8.072 29.7921 8.254C29.6534 8.43167 29.5841 8.63533 29.5841 8.865C29.5841 9.08167 29.6188 9.27017 29.6881 9.4305C29.7618 9.5865 29.8571 9.7165 29.9741 9.8205C30.0954 9.92017 30.2341 9.99383 30.3901 10.0415C30.5461 10.0892 30.7086 10.113 30.8776 10.113C31.1289 10.113 31.3586 10.087 31.5666 10.035C31.7789 9.97867 31.9739 9.90283 32.1516 9.8075C32.3336 9.70783 32.5026 9.59083 32.6586 9.4565C32.8146 9.32217 32.9684 9.177 33.1201 9.021V7.331ZM29.3176 4.9065C29.6556 4.5685 30.0109 4.31283 30.3836 4.1395C30.7563 3.96617 31.1788 3.8795 31.6511 3.8795C31.9978 3.8795 32.3011 3.93583 32.5611 4.0485C32.8211 4.15683 33.0356 4.315 33.2046 4.523C33.3779 4.72667 33.5079 4.97583 33.5946 5.2705C33.6813 5.56083 33.7246 5.88583 33.7246 6.2455V10.4575H33.4776C33.3476 10.4575 33.2674 10.3968 33.2371 10.2755L33.1461 9.4435C32.9684 9.61683 32.7908 9.77283 32.6131 9.9115C32.4398 10.0502 32.2578 10.1672 32.0671 10.2625C31.8764 10.3578 31.6706 10.4315 31.4496 10.4835C31.2286 10.5355 30.9859 10.5615 30.7216 10.5615C30.5006 10.5615 30.2861 10.529 30.0781 10.464C29.8701 10.399 29.6838 10.2993 29.5191 10.165C29.3588 10.0307 29.2288 9.8595 29.1291 9.6515C29.0338 9.43917 28.9861 9.18567 28.9861 8.891C28.9861 8.618 29.0641 8.3645 29.2201 8.1305C29.3761 7.8965 29.6209 7.69283 29.9546 7.5195C30.2883 7.34617 30.7151 7.2075 31.2351 7.1035C31.7594 6.9995 32.3878 6.93883 33.1201 6.9215V6.2455C33.1201 5.6475 32.9901 5.18817 32.7301 4.8675C32.4744 4.5425 32.0931 4.38 31.5861 4.38C31.2741 4.38 31.0076 4.42333 30.7866 4.51C30.5699 4.59667 30.3858 4.692 30.2341 4.796C30.0824 4.9 29.9589 4.99533 29.8636 5.082C29.7683 5.16867 29.6881 5.212 29.6231 5.212C29.5754 5.212 29.5364 5.20117 29.5061 5.1795C29.4758 5.15783 29.4498 5.12967 29.4281 5.095L29.3176 4.9065Z" fill="#FF0000"/>
<path d="M36.388 5.55C36.4876 5.28567 36.6003 5.05167 36.726 4.848C36.856 4.64 37.0033 4.4645 37.168 4.3215C37.337 4.1785 37.5233 4.07017 37.727 3.9965C37.935 3.9185 38.1646 3.8795 38.416 3.8795C38.5503 3.8795 38.6825 3.8925 38.8125 3.9185C38.9425 3.94017 39.0573 3.98133 39.157 4.042L39.105 4.471C39.0833 4.54033 39.0421 4.575 38.9815 4.575C38.9295 4.575 38.8493 4.55983 38.741 4.5295C38.637 4.49917 38.4983 4.484 38.325 4.484C38.0736 4.484 37.8505 4.523 37.6555 4.601C37.4648 4.67467 37.2915 4.78733 37.1355 4.939C36.9838 5.09067 36.8495 5.27917 36.7325 5.5045C36.6198 5.7255 36.5158 5.98117 36.4205 6.2715V10.4575H35.7965V3.99H36.128C36.2016 3.99 36.2536 4.00517 36.284 4.0355C36.3143 4.06583 36.3338 4.11783 36.3425 4.1915L36.388 5.55Z" fill="#FF0000"/>
<path d="M48.4625 7.1165L46.5905 2.469C46.5255 2.31733 46.4627 2.13533 46.402 1.923C46.376 2.027 46.3479 2.12667 46.3175 2.222C46.2872 2.313 46.2547 2.3975 46.22 2.4755L44.348 7.1165H48.4625ZM50.497 10.4575H49.9835C49.9229 10.4575 49.873 10.4423 49.834 10.412C49.795 10.3773 49.7647 10.334 49.743 10.282L48.664 7.6105H44.1465L43.0675 10.282C43.0502 10.3297 43.0199 10.3708 42.9765 10.4055C42.9332 10.4402 42.8812 10.4575 42.8205 10.4575H42.3135L46.077 1.26H46.7335L50.497 10.4575Z" fill="#FF0000"/>
<path d="M52.3608 1V10.4575H51.7368V1H52.3608Z" fill="#FF0000"/>
<path d="M55.2299 1V10.4575H54.6059V1H55.2299Z" fill="#FF0000"/>
<path d="M0.137147 3.25685L7.20065 10.3204C7.38351 10.5032 7.67999 10.5032 7.86285 10.3204C8.04572 10.1375 8.04572 9.84101 7.86285 9.65815L0.79935 2.59465C0.616488 2.41178 0.320009 2.41178 0.137147 2.59465C-0.0457155 2.77751 -0.0457155 3.07399 0.137147 3.25685Z" fill="#FF0000"/>
<path d="M7.20065 2.59465L0.137147 9.65815C-0.0457157 9.84101 -0.0457155 10.1375 0.137147 10.3204C0.320009 10.5032 0.616488 10.5032 0.79935 10.3204L7.86285 3.25685C8.04572 3.07399 8.04572 2.77751 7.86285 2.59465C7.67999 2.41178 7.38351 2.41178 7.20065 2.59465Z" fill="#FF0000"/>
</svg>
